MutatorSansInstance_600-100.ufo
<glyph name="comma" format="2">
  <advance width="227"/>
  <unicode hex="002C"/>
  <outline>
    <contour>
      <point x="181" y="0" type="line"/>
      <point x="181" y="232" type="line"/>
      <point x="47" y="232" type="line"/>
      <point x="47" y="0" type="line"/>
      <point x="107" y="-13" type="line"/>
      <point x="98" y="12" type="line"/>
      <point x="76" y="-123" type="line"/>
      <point x="124" y="-125" type="line"/>
    </contour>
  </outline>
</glyph>
<glyph name="period" format="2">
  <advance width="226"/>
  <unicode hex="002E"/>
  <outline>
    <contour>
      <point x="46" y="0" type="line"/>
      <point x="180" y="0" type="line"/>
      <point x="180" y="232" type="line"/>
      <point x="46" y="232" type="line"/>
    </contour>
  </outline>
</glyph>
<glyph name="A" format="2">
  <advance width="669"/>
  <unicode hex="0041"/>
  <outline>
    <contour>
      <point x="16" y="0" type="line"/>
      <point x="182" y="0" type="line"/>
      <point x="312" y="760" type="line"/>
      <point x="168" y="760" type="line"/>
    </contour>
    <contour>
      <point x="109" y="140" type="line"/>
      <point x="525" y="140" type="line"/>
      <point x="525" y="281" type="line"/>
      <point x="109" y="281" type="line"/>
    </contour>
    <contour>
      <point x="422" y="0" type="line"/>
      <point x="652" y="0" type="line"/>
      <point x="499" y="760" type="line"/>
      <point x="284" y="760" type="line"/>
    </contour>
    <contour>
      <point x="217" y="589" type="line"/>
      <point x="416" y="589" type="line"/>
      <point x="416" y="760" type="line"/>
      <point x="217" y="760" type="line"/>
    </contour>
  </outline>
</glyph>
<glyph name="B" format="2">
  <advance width="668"/>
  <unicode hex="0042"/>
  <outline>
    <contour>
      <point x="46" y="0" type="line"/>
      <point x="255" y="0" type="line"/>
      <point x="255" y="760" type="line"/>
      <point x="46" y="760" type="line"/>
    </contour>
    <contour>
      <point x="213" y="341" type="line"/>
      <point x="344" y="341" type="line" smooth="yes"/>
      <point x="405" y="341"/>
      <point x="439" y="311"/>
      <point x="439" y="248" type="curve" smooth="yes"/>
      <point x="439" y="187"/>
      <point x="404" y="157"/>
      <point x="340" y="157" type="curve" smooth="yes"/>
      <point x="213" y="157" type="line"/>
      <point x="213" y="0" type="line"/>
      <point x="374" y="0" type="line" smooth="yes"/>
      <point x="589" y="0"/>
      <point x="644" y="88"/>
      <point x="644" y="211" type="curve" smooth="yes"/>
      <point x="644" y="323"/>
      <point x="589" y="390"/>
      <point x="485" y="405" type="curve"/>
      <point x="484" y="366" type="line"/>
      <point x="566" y="382"/>
      <point x="627" y="442"/>
      <point x="627" y="545" type="curve" smooth="yes"/>
      <point x="627" y="674"/>
      <point x="567" y="760"/>
      <point x="359" y="760" type="curve" smooth="yes"/>
      <point x="213" y="760" type="line"/>
      <point x="213" y="610" type="line"/>
      <point x="332" y="610" type="line" smooth="yes"/>
      <point x="399" y="610"/>
      <point x="428" y="580"/>
      <point x="428" y="521" type="curve" smooth="yes"/>
      <point x="428" y="457"/>
      <point x="393" y="430"/>
      <point x="332" y="430" type="curve" smooth="yes"/>
      <point x="213" y="430" type="line"/>
    </contour>
  </outline>
</glyph>
<glyph name="C" format="2">
  <advance width="758"/>
  <unicode hex="0043"/>
  <outline>
    <contour>
      <point x="526" y="332" type="line"/>
      <point x="517" y="205"/>
      <point x="473" y="163"/>
      <point x="394" y="163" type="curve" smooth="yes"/>
      <point x="378" y="163" type="line" smooth="yes"/>
      <point x="295" y="163"/>
      <point x="250" y="221"/>
      <point x="250" y="383" type="curve" smooth="yes"/>
      <point x="250" y="541"/>
      <point x="295" y="597"/>
      <point x="378" y="597" type="curve" smooth="yes"/>
      <point x="394" y="597" type="line" smooth="yes"/>
      <point x="472" y="597"/>
      <point x="517" y="557"/>
      <point x="526" y="434" type="curve"/>
      <point x="724" y="455" type="line"/>
      <point x="703" y="673"/>
      <point x="583" y="770"/>
      <point x="401" y="770" type="curve" smooth="yes"/>
      <point x="370" y="770" type="line" smooth="yes"/>
      <point x="164" y="770"/>
      <point x="34" y="653"/>
      <point x="34" y="383" type="curve" smooth="yes"/>
      <point x="34" y="110"/>
      <point x="164" y="-10"/>
      <point x="370" y="-10" type="curve" smooth="yes"/>
      <point x="401" y="-10" type="line" smooth="yes"/>
      <point x="583" y="-10"/>
      <point x="704" y="90"/>
      <point x="724" y="312" type="curve"/>
    </contour>
  </outline>
</glyph>
<glyph name="D" format="2">
  <advance width="696"/>
  <unicode hex="0044"/>
  <outline>
    <contour>
      <point x="46" y="0" type="line"/>
      <point x="243" y="0" type="line"/>
      <point x="243" y="760" type="line"/>
      <point x="46" y="760" type="line"/>
    </contour>
    <contour>
      <point x="204" y="593" type="line"/>
      <point x="304" y="593" type="line" smooth="yes"/>
      <point x="394" y="593"/>
      <point x="446" y="541"/>
      <point x="446" y="383" type="curve" smooth="yes"/>
      <point x="446" y="221"/>
      <point x="394" y="167"/>
      <point x="304" y="167" type="curve" smooth="yes"/>
      <point x="200" y="167" type="line"/>
      <point x="200" y="0" type="line"/>
      <point x="311" y="0" type="line" smooth="yes"/>
      <point x="524" y="0"/>
      <point x="662" y="114"/>
      <point x="662" y="383" type="curve" smooth="yes"/>
      <point x="662" y="649"/>
      <point x="524" y="760"/>
      <point x="311" y="760" type="curve" smooth="yes"/>
      <point x="204" y="760" type="line"/>
    </contour>
  </outline>
</glyph>
<glyph name="E" format="2">
  <advance width="577"/>
  <unicode hex="0045"/>
  <anchor x="299" y="803" name="top"/>
  <outline>
    <contour>
      <point x="52" y="0" type="line"/>
      <point x="249" y="0" type="line"/>
      <point x="249" y="760" type="line"/>
      <point x="52" y="760" type="line"/>
    </contour>
    <contour>
      <point x="114" y="584" type="line"/>
      <point x="538" y="584" type="line"/>
      <point x="538" y="760" type="line"/>
      <point x="114" y="760" type="line"/>
    </contour>
    <contour>
      <point x="114" y="0" type="line"/>
      <point x="538" y="0" type="line"/>
      <point x="538" y="176" type="line"/>
      <point x="114" y="176" type="line"/>
    </contour>
    <contour>
      <point x="114" y="323" type="line"/>
      <point x="495" y="323" type="line"/>
      <point x="495" y="439" type="line"/>
      <point x="114" y="439" type="line"/>
    </contour>
  </outline>
</glyph>
<glyph name="F" format="2">
  <advance width="565"/>
  <unicode hex="0046"/>
  <outline>
    <contour>
      <point x="46" y="0" type="line"/>
      <point x="260" y="0" type="line"/>
      <point x="260" y="760" type="line"/>
      <point x="46" y="760" type="line"/>
    </contour>
    <contour>
      <point x="114" y="594" type="line"/>
      <point x="519" y="594" type="line"/>
      <point x="519" y="760" type="line"/>
      <point x="114" y="760" type="line"/>
    </contour>
    <contour>
      <point x="114" y="287" type="line"/>
      <point x="496" y="287" type="line"/>
      <point x="496" y="429" type="line"/>
      <point x="114" y="429" type="line"/>
    </contour>
  </outline>
</glyph>
<glyph name="G" format="2">
  <advance width="771"/>
  <unicode hex="0047"/>
  <outline>
    <contour>
      <point x="374" y="304" type="line"/>
      <point x="568" y="304" type="line"/>
      <point x="568" y="216" type="line"/>
      <point x="638" y="0" type="line"/>
      <point x="724" y="0" type="line"/>
      <point x="724" y="380" type="line"/>
      <point x="374" y="380" type="line"/>
    </contour>
    <contour>
      <point x="539" y="340" type="line"/>
      <point x="530" y="206"/>
      <point x="482" y="163"/>
      <point x="396" y="163" type="curve" smooth="yes"/>
      <point x="378" y="163" type="line" smooth="yes"/>
      <point x="295" y="163"/>
      <point x="250" y="221"/>
      <point x="250" y="383" type="curve" smooth="yes"/>
      <point x="250" y="541"/>
      <point x="301" y="597"/>
      <point x="389" y="597" type="curve" smooth="yes"/>
      <point x="407" y="597" type="line" smooth="yes"/>
      <point x="488" y="597"/>
      <point x="530" y="557"/>
      <point x="539" y="434" type="curve"/>
      <point x="720" y="455" type="line"/>
      <point x="700" y="673"/>
      <point x="585" y="770"/>
      <point x="407" y="770" type="curve" smooth="yes"/>
      <point x="373" y="770" type="line" smooth="yes"/>
      <point x="167" y="770"/>
      <point x="34" y="653"/>
      <point x="34" y="383" type="curve" smooth="yes"/>
      <point x="34" y="110"/>
      <point x="164" y="-10"/>
      <point x="370" y="-10" type="curve" smooth="yes"/>
      <point x="393" y="-10" type="line" smooth="yes"/>
      <point x="572" y="-10"/>
      <point x="685" y="91"/>
      <point x="701" y="320" type="curve"/>
    </contour>
  </outline>
</glyph>
<glyph name="H" format="2">
  <advance width="698"/>
  <unicode hex="0048"/>
  <outline>
    <contour>
      <point x="46" y="0" type="line"/>
      <point x="260" y="0" type="line"/>
      <point x="260" y="760" type="line"/>
      <point x="46" y="760" type="line"/>
    </contour>
    <contour>
      <point x="124" y="290" type="line"/>
      <point x="574" y="290" type="line"/>
      <point x="574" y="461" type="line"/>
      <point x="124" y="461" type="line"/>
    </contour>
    <contour>
      <point x="438" y="0" type="line"/>
      <point x="652" y="0" type="line"/>
      <point x="652" y="760" type="line"/>
      <point x="438" y="760" type="line"/>
    </contour>
  </outline>
</glyph>
<glyph name="I" format="2">
  <advance width="516"/>
  <unicode hex="0049"/>
  <outline>
    <contour>
      <point x="151" y="0" type="line"/>
      <point x="365" y="0" type="line"/>
      <point x="365" y="760" type="line"/>
      <point x="151" y="760" type="line"/>
    </contour>
    <contour>
      <point x="46" y="578" type="line"/>
      <point x="470" y="578" type="line"/>
      <point x="470" y="760" type="line"/>
      <point x="46" y="760" type="line"/>
    </contour>
    <contour>
      <point x="46" y="0" type="line"/>
      <point x="470" y="0" type="line"/>
      <point x="470" y="182" type="line"/>
      <point x="46" y="182" type="line"/>
    </contour>
  </outline>
</glyph>
<glyph name="J" format="2">
  <advance width="582"/>
  <unicode hex="004A"/>
  <outline>
    <contour>
      <point x="191" y="-10" type="curve" smooth="yes"/>
      <point x="405" y="-10"/>
      <point x="535" y="86"/>
      <point x="535" y="305" type="curve" smooth="yes"/>
      <point x="535" y="760" type="line"/>
      <point x="320" y="760" type="line"/>
      <point x="320" y="343" type="line" smooth="yes"/>
      <point x="320" y="219"/>
      <point x="267" y="175"/>
      <point x="171" y="175" type="curve" smooth="yes"/>
      <point x="141" y="175"/>
      <point x="112" y="178"/>
      <point x="81" y="186" type="curve"/>
      <point x="46" y="10" type="line"/>
      <point x="88" y="-4"/>
      <point x="137" y="-10"/>
    </contour>
  </outline>
</glyph>
<glyph name="K" format="2">
  <advance width="717"/>
  <unicode hex="004B"/>
  <outline>
    <contour>
      <point x="46" y="0" type="line"/>
      <point x="260" y="0" type="line"/>
      <point x="260" y="760" type="line"/>
      <point x="46" y="760" type="line"/>
    </contour>
    <contour>
      <point x="226" y="319" type="line"/>
      <point x="286" y="319" type="line"/>
      <point x="457" y="0" type="line"/>
      <point x="700" y="0" type="line"/>
      <point x="468" y="466" type="line"/>
      <point x="297" y="418" type="line"/>
      <point x="226" y="418" type="line"/>
    </contour>
    <contour>
      <point x="279" y="395" type="line"/>
      <point x="436" y="325" type="line"/>
      <point x="693" y="760" type="line"/>
      <point x="466" y="760" type="line"/>
    </contour>
  </outline>
</glyph>
<glyph name="L" format="2">
  <advance width="533"/>
  <unicode hex="004C"/>
  <outline>
    <contour>
      <point x="46" y="0" type="line"/>
      <point x="260" y="0" type="line"/>
      <point x="260" y="760" type="line"/>
      <point x="46" y="760" type="line"/>
    </contour>
    <contour>
      <point x="114" y="0" type="line"/>
      <point x="509" y="0" type="line"/>
      <point x="509" y="166" type="line"/>
      <point x="114" y="166" type="line"/>
    </contour>
  </outline>
</glyph>
<glyph name="M" format="2">
  <advance width="755"/>
  <unicode hex="004D"/>
  <outline>
    <contour>
      <point x="46" y="0" type="line"/>
      <point x="216" y="0" type="line"/>
      <point x="216" y="760" type="line"/>
      <point x="46" y="760" type="line"/>
    </contour>
    <contour>
      <point x="708" y="0" type="line"/>
      <point x="708" y="760" type="line"/>
      <point x="538" y="760" type="line"/>
      <point x="538" y="0" type="line"/>
    </contour>
    <contour>
      <point x="628" y="517" type="line"/>
      <point x="538" y="760" type="line"/>
      <point x="363" y="464" type="line"/>
      <point x="391" y="464" type="line"/>
      <point x="216" y="760" type="line"/>
      <point x="127" y="517" type="line"/>
      <point x="346" y="189" type="line"/>
      <point x="409" y="189" type="line"/>
    </contour>
  </outline>
</glyph>
<glyph name="N" format="2">
  <advance width="698"/>
  <unicode hex="004E"/>
  <outline>
    <contour>
      <point x="46" y="0" type="line"/>
      <point x="215" y="0" type="line"/>
      <point x="215" y="760" type="line"/>
      <point x="46" y="760" type="line"/>
    </contour>
    <contour>
      <point x="103" y="567" type="line"/>
      <point x="483" y="0" type="line"/>
      <point x="595" y="193" type="line"/>
      <point x="215" y="760" type="line"/>
    </contour>
    <contour>
      <point x="483" y="0" type="line"/>
      <point x="652" y="0" type="line"/>
      <point x="652" y="760" type="line"/>
      <point x="483" y="760" type="line"/>
    </contour>
  </outline>
</glyph>
<glyph name="O" format="2">
  <advance width="773"/>
  <unicode hex="004F"/>
  <outline>
    <contour>
      <point x="370" y="-10" type="curve" smooth="yes"/>
      <point x="402" y="-10" type="line" smooth="yes"/>
      <point x="608" y="-10"/>
      <point x="738" y="110"/>
      <point x="738" y="383" type="curve" smooth="yes"/>
      <point x="738" y="653"/>
      <point x="608" y="770"/>
      <point x="402" y="770" type="curve" smooth="yes"/>
      <point x="370" y="770" type="line" smooth="yes"/>
      <point x="164" y="770"/>
      <point x="34" y="653"/>
      <point x="34" y="383" type="curve" smooth="yes"/>
      <point x="34" y="110"/>
      <point x="164" y="-10"/>
    </contour>
    <contour>
      <point x="378" y="163" type="line" smooth="yes"/>
      <point x="295" y="163"/>
      <point x="250" y="221"/>
      <point x="250" y="383" type="curve" smooth="yes"/>
      <point x="250" y="541"/>
      <point x="295" y="597"/>
      <point x="378" y="597" type="curve" smooth="yes"/>
      <point x="394" y="597" type="line" smooth="yes"/>
      <point x="478" y="597"/>
      <point x="522" y="541"/>
      <point x="522" y="383" type="curve" smooth="yes"/>
      <point x="522" y="221"/>
      <point x="478" y="163"/>
      <point x="394" y="163" type="curve" smooth="yes"/>
    </contour>
  </outline>
</glyph>
<glyph name="P" format="2">
  <advance width="642"/>
  <unicode hex="0050"/>
  <outline>
    <contour>
      <point x="46" y="0" type="line"/>
      <point x="260" y="0" type="line"/>
      <point x="260" y="760" type="line"/>
      <point x="46" y="760" type="line"/>
    </contour>
    <contour>
      <point x="204" y="591" type="line"/>
      <point x="315" y="591" type="line" smooth="yes"/>
      <point x="389" y="591"/>
      <point x="421" y="546"/>
      <point x="421" y="463" type="curve" smooth="yes"/>
      <point x="421" y="377"/>
      <point x="389" y="335"/>
      <point x="315" y="335" type="curve" smooth="yes"/>
      <point x="204" y="335" type="line"/>
      <point x="204" y="165" type="line"/>
      <point x="321" y="165" type="line" smooth="yes"/>
      <point x="542" y="165"/>
      <point x="618" y="276"/>
      <point x="618" y="463" type="curve" smooth="yes"/>
      <point x="618" y="650"/>
      <point x="542" y="760"/>
      <point x="322" y="760" type="curve" smooth="yes"/>
      <point x="204" y="760" type="line"/>
    </contour>
  </outline>
</glyph>
<glyph name="Q" format="2">
  <advance width="773"/>
  <unicode hex="0051"/>
  <outline>
    <contour>
      <point x="402" y="-130" type="line"/>
      <point x="612" y="-130" type="line"/>
      <point x="505" y="107" type="line"/>
      <point x="314" y="100" type="line"/>
    </contour>
    <component base="O"/>
  </outline>
</glyph>
<glyph name="R" format="2">
  <advance width="654"/>
  <unicode hex="0052"/>
  <outline>
    <contour>
      <point x="411" y="0" type="line"/>
      <point x="628" y="0" type="line"/>
      <point x="568" y="170" type="line" smooth="yes"/>
      <point x="545" y="224"/>
      <point x="514" y="254"/>
      <point x="462" y="254" type="curve"/>
      <point x="334" y="254" type="line"/>
    </contour>
    <contour>
      <point x="46" y="0" type="line"/>
      <point x="260" y="0" type="line"/>
      <point x="260" y="760" type="line"/>
      <point x="46" y="760" type="line"/>
    </contour>
    <contour>
      <point x="204" y="591" type="line"/>
      <point x="320" y="591" type="line" smooth="yes"/>
      <point x="394" y="591"/>
      <point x="426" y="546"/>
      <point x="426" y="463" type="curve" smooth="yes"/>
      <point x="426" y="377"/>
      <point x="394" y="335"/>
      <point x="320" y="335" type="curve" smooth="yes"/>
      <point x="204" y="335" type="line"/>
      <point x="204" y="201" type="line"/>
      <point x="332" y="201" type="line" smooth="yes"/>
      <point x="542" y="201"/>
      <point x="623" y="306"/>
      <point x="623" y="481" type="curve" smooth="yes"/>
      <point x="623" y="656"/>
      <point x="537" y="760"/>
      <point x="326" y="760" type="curve" smooth="yes"/>
      <point x="204" y="760" type="line"/>
    </contour>
  </outline>
</glyph>
<glyph name="S" format="2">
  <advance width="640"/>
  <unicode hex="0053"/>
  <outline>
    <contour>
      <point x="607" y="216" type="curve" smooth="yes"/>
      <point x="606" y="376"/>
      <point x="519" y="432"/>
      <point x="378" y="462" type="curve" smooth="yes"/>
      <point x="312" y="479" type="line" smooth="yes"/>
      <point x="233" y="501"/>
      <point x="216" y="520"/>
      <point x="216" y="552" type="curve" smooth="yes"/>
      <point x="216" y="585"/>
      <point x="245" y="609"/>
      <point x="317" y="609" type="curve" smooth="yes"/>
      <point x="362" y="609" type="line" smooth="yes"/>
      <point x="441" y="609"/>
      <point x="513" y="599"/>
      <point x="571" y="582" type="curve"/>
      <point x="599" y="736" type="line"/>
      <point x="541" y="754"/>
      <point x="452" y="770"/>
      <point x="384" y="770" type="curve" smooth="yes"/>
      <point x="349" y="770" type="line" smooth="yes"/>
      <point x="141" y="770"/>
      <point x="41" y="680"/>
      <point x="42" y="534" type="curve" smooth="yes"/>
      <point x="42" y="389"/>
      <point x="138" y="329"/>
      <point x="269" y="298" type="curve" smooth="yes"/>
      <point x="333" y="280" type="line" smooth="yes"/>
      <point x="412" y="255"/>
      <point x="431" y="242"/>
      <point x="431" y="207" type="curve" smooth="yes"/>
      <point x="431" y="176"/>
      <point x="402" y="152"/>
      <point x="327" y="152" type="curve" smooth="yes"/>
      <point x="284" y="152" type="line" smooth="yes"/>
      <point x="196" y="152"/>
      <point x="117" y="162"/>
      <point x="53" y="181" type="curve"/>
      <point x="25" y="25" type="line"/>
      <point x="90" y="7"/>
      <point x="188" y="-10"/>
      <point x="261" y="-10" type="curve" smooth="yes"/>
      <point x="298" y="-10" type="line" smooth="yes"/>
      <point x="533" y="-10"/>
      <point x="607" y="90"/>
    </contour>
  </outline>
</glyph>
<glyph name="T" format="2">
  <advance width="614"/>
  <unicode hex="0054"/>
  <outline>
    <contour>
      <point x="200" y="0" type="line"/>
      <point x="414" y="0" type="line"/>
      <point x="414" y="760" type="line"/>
      <point x="200" y="760" type="line"/>
    </contour>
    <contour>
      <point x="24" y="592" type="line"/>
      <point x="590" y="592" type="line"/>
      <point x="590" y="760" type="line"/>
      <point x="24" y="760" type="line"/>
    </contour>
  </outline>
</glyph>
<glyph name="U" format="2">
  <advance width="702"/>
  <unicode hex="0055"/>
  <outline>
    <contour>
      <point x="350" y="-10" type="curve" smooth="yes"/>
      <point x="557" y="-10"/>
      <point x="654" y="83"/>
      <point x="654" y="291" type="curve" smooth="yes"/>
      <point x="654" y="760" type="line"/>
      <point x="439" y="760" type="line"/>
      <point x="439" y="264" type="line" smooth="yes"/>
      <point x="439" y="189"/>
      <point x="407" y="165"/>
      <point x="351" y="165" type="curve" smooth="yes"/>
      <point x="295" y="165"/>
      <point x="263" y="189"/>
      <point x="263" y="264" type="curve" smooth="yes"/>
      <point x="263" y="760" type="line"/>
      <point x="48" y="760" type="line"/>
      <point x="48" y="291" type="line" smooth="yes"/>
      <point x="48" y="83"/>
      <point x="143" y="-10"/>
    </contour>
  </outline>
</glyph>
<glyph name="V" format="2">
  <advance width="670"/>
  <unicode hex="0056"/>
  <outline>
    <contour>
      <point x="653" y="760" type="line"/>
      <point x="482" y="760" type="line"/>
      <point x="350" y="0" type="line"/>
      <point x="500" y="0" type="line"/>
    </contour>
    <contour>
      <point x="246" y="760" type="line"/>
      <point x="15" y="760" type="line"/>
      <point x="169" y="0" type="line"/>
      <point x="386" y="0" type="line"/>
    </contour>
    <contour>
      <point x="452" y="171" type="line"/>
      <point x="254" y="171" type="line"/>
      <point x="254" y="0" type="line"/>
      <point x="452" y="0" type="line"/>
    </contour>
  </outline>
</glyph>
<glyph name="W" format="2">
  <advance width="803"/>
  <unicode hex="0057"/>
  <outline>
    <contour>
      <point x="787" y="760" type="line"/>
      <point x="608" y="760" type="line"/>
      <point x="534" y="187" type="line"/>
      <point x="561" y="187" type="line"/>
      <point x="483" y="760" type="line"/>
      <point x="341" y="760" type="line"/>
      <point x="268" y="186" type="line"/>
      <point x="296" y="186" type="line"/>
      <point x="216" y="760" type="line"/>
      <point x="16" y="760" type="line"/>
      <point x="132" y="0" type="line"/>
      <point x="331" y="0" type="line"/>
      <point x="403" y="505" type="line"/>
      <point x="373" y="505" type="line"/>
      <point x="456" y="0" type="line"/>
      <point x="673" y="0" type="line"/>
    </contour>
  </outline>
</glyph>
<glyph name="X" format="2">
  <advance width="667"/>
  <unicode hex="0058"/>
  <outline>
    <contour>
      <point x="399" y="0" type="line"/>
      <point x="652" y="0" type="line"/>
      <point x="417" y="430" type="line"/>
      <point x="272" y="760" type="line"/>
      <point x="18" y="760" type="line"/>
      <point x="248" y="347" type="line"/>
    </contour>
    <contour>
      <point x="15" y="0" type="line"/>
      <point x="183" y="0" type="line"/>
      <point x="309" y="321" type="line"/>
      <point x="448" y="341" type="line"/>
      <point x="647" y="760" type="line"/>
      <point x="480" y="760" type="line"/>
      <point x="355" y="466" type="line"/>
      <point x="217" y="437" type="line"/>
    </contour>
  </outline>
</glyph>
<glyph name="Y" format="2">
  <advance width="663"/>
  <unicode hex="0059"/>
  <outline>
    <contour>
      <point x="648" y="760" type="line"/>
      <point x="486" y="760" type="line"/>
      <point x="304" y="204" type="line"/>
      <point x="438" y="203" type="line"/>
    </contour>
    <contour>
      <point x="248" y="760" type="line"/>
      <point x="15" y="760" type="line"/>
      <point x="225" y="203" type="line"/>
      <point x="419" y="204" type="line"/>
    </contour>
    <contour>
      <point x="438" y="268" type="line"/>
      <point x="224" y="268" type="line"/>
      <point x="224" y="0" type="line"/>
      <point x="438" y="0" type="line"/>
    </contour>
  </outline>
</glyph>
<glyph name="Z" format="2">
  <advance width="629"/>
  <unicode hex="005A"/>
  <outline>
    <contour>
      <point x="46" y="166" type="line"/>
      <point x="280" y="145" type="line"/>
      <point x="583" y="594" type="line"/>
      <point x="348" y="615" type="line"/>
    </contour>
    <contour>
      <point x="46" y="594" type="line"/>
      <point x="583" y="594" type="line"/>
      <point x="583" y="760" type="line"/>
      <point x="46" y="760" type="line"/>
    </contour>
    <contour>
      <point x="46" y="0" type="line"/>
      <point x="583" y="0" type="line"/>
      <point x="583" y="166" type="line"/>
      <point x="46" y="166" type="line"/>
    </contour>
  </outline>
</glyph>
